<?xml version="1.0" encoding="utf-8"?>
<svg version="1.1" xmlns:xlink="http://www.w3.org/1999/xlink" width="960px" height="223px" xmlns="http://www.w3.org/2000/svg">
  <g transform="matrix(1 0 0 1 -88 -165 )">
    <path d="M 88 165  L 1048 165  L 1048 388  L 88 388  L 88 165  " fill-rule="nonzero" fill="#cccccc" stroke="none" />
    <path d="M 104 181  L 1032 181  L 1032 372  L 104 372  L 104 181  " fill-rule="nonzero" fill="#ffffff" stroke="none" />
    <path d="M 603.925 231.9  C 594.559 231.9  587.2 224.541  587.2 215.175  C 587.2 205.809  594.559 198.45  603.925 198.45  C 613.291 198.45  620.65 205.809  620.65 215.175  C 620.65 224.541  613.291 231.9  603.925 231.9  " fill-rule="nonzero" fill="#cccccc" stroke="none" />
    <path d="M 110 367  L 110 268  L 339.25 223  L 660.2 341.9125  L 843.6 250  L 1027 341.9125  L 1027 367  L 110 367  " fill-rule="nonzero" fill="#169bd5" stroke="none" />
  </g>
</svg>