<?xml version="1.0" encoding="utf-8"?>
<svg version="1.1" xmlns:xlink="http://www.w3.org/1999/xlink" width="194px" height="57px" xmlns="http://www.w3.org/2000/svg">
  <defs>
    <mask fill="white" id="clip1">
      <path d="M 0 49.875  L 0 7.125  C 0 3.13500000000007  3.04857142857149 0  6.92857142857143 0  L 139.025761124121 0  L 187.071428571429 0  C 190.951428571429 0  194 3.13500000000007  194 7.125  L 194 49.875  C 194 53.8649999999999  190.951428571429 57  187.071428571429 57  L 6.92857142857143 57  C 3.04857142857149 57  0 53.8649999999999  0 49.875  Z " fill-rule="evenodd" />
    </mask>
  </defs>
  <g transform="matrix(1 0 0 1 -591 -768 )">
    <path d="M 0 49.875  L 0 7.125  C 0 3.13500000000007  3.04857142857149 0  6.92857142857143 0  L 139.025761124121 0  L 187.071428571429 0  C 190.951428571429 0  194 3.13500000000007  194 7.125  L 194 49.875  C 194 53.8649999999999  190.951428571429 57  187.071428571429 57  L 6.92857142857143 57  C 3.04857142857149 57  0 53.8649999999999  0 49.875  Z " fill-rule="nonzero" fill="#ffffff" stroke="none" transform="matrix(1 0 0 1 591 768 )" />
    <path d="M 0 49.875  L 0 7.125  C 0 3.13500000000007  3.04857142857149 0  6.92857142857143 0  L 139.025761124121 0  L 187.071428571429 0  C 190.951428571429 0  194 3.13500000000007  194 7.125  L 194 49.875  C 194 53.8649999999999  190.951428571429 57  187.071428571429 57  L 6.92857142857143 57  C 3.04857142857149 57  0 53.8649999999999  0 49.875  Z " stroke-width="2" stroke="#797979" fill="none" transform="matrix(1 0 0 1 591 768 )" mask="url(#clip1)" />
  </g>
</svg>