<?xml version="1.0" encoding="utf-8"?>
<svg version="1.1" xmlns:xlink="http://www.w3.org/1999/xlink" width="186px" height="170px" xmlns="http://www.w3.org/2000/svg">
  <g transform="matrix(1 0 0 1 -121 -222 )">
    <path d="M 121 222  L 307 222  L 307 392  L 121 392  L 121 222  " fill-rule="nonzero" fill="#cccccc" stroke="none" />
    <path d="M 133 234  L 295 234  L 295 380  L 133 380  L 133 234  " fill-rule="nonzero" fill="#ffffff" stroke="none" />
    <path d="M 230.47 273  C 223.33 273  217.72 267.39  217.72 260.25  C 217.72 253.11  223.33 247.5  230.47 247.5  C 237.61 247.5  243.22 253.11  243.22 260.25  C 243.22 267.39  237.61 273  230.47 273  " fill-rule="nonzero" fill="#cccccc" stroke="none" />
    <path d="M 138 376  L 138 300.65  L 176.25 266.4  L 229.8 300.870967741935  L 260.4 286.95  L 291 300.870967741935  L 291 376  L 138 376  " fill-rule="nonzero" fill="#169bd5" stroke="none" />
  </g>
</svg>